<svg width="64" height="64" viewBox="0 0 64 64" fill="none" xmlns="http://www.w3.org/2000/svg">
<path d="M28 5C28 6.65685 26.6569 8 25 8C23.3431 8 22 6.65685 22 5C22 3.34315 23.3431 2 25 2C26.6569 2 28 3.34315 28 5Z" fill="#E7EAE9"/>
<path d="M20 5C20 6.65685 18.6569 8 17 8C15.3431 8 14 6.65685 14 5C14 3.34315 15.3431 2 17 2C18.6569 2 20 3.34315 20 5Z" fill="#E7EAE9"/>
<path d="M20 12C20 13.6569 18.6569 15 17 15C15.3431 15 14 13.6569 14 12C14 10.3431 15.3431 9 17 9C18.6569 9 20 10.3431 20 12Z" fill="#E7EAE9"/>
<path d="M20 19C20 20.6569 18.6569 22 17 22C15.3431 22 14 20.6569 14 19C14 17.3431 15.3431 16 17 16C18.6569 16 20 17.3431 20 19Z" fill="#E7EAE9"/>
<path d="M20 26C20 27.6569 18.6569 29 17 29C15.3431 29 14 27.6569 14 26C14 24.3431 15.3431 23 17 23C18.6569 23 20 24.3431 20 26Z" fill="#E7EAE9"/>
<path d="M20 33C20 34.6569 18.6569 36 17 36C15.3431 36 14 34.6569 14 33C14 31.3431 15.3431 30 17 30C18.6569 30 20 31.3431 20 33Z" fill="#E7EAE9"/>
<path d="M57 3C57 4.65685 55.6569 6 54 6C52.3431 6 51 4.65685 51 3C51 1.34315 52.3431 0 54 0C55.6569 0 57 1.34315 57 3Z" fill="#E7EAE9"/>
<path d="M20 40C20 41.6569 18.6569 43 17 43C15.3431 43 14 41.6569 14 40C14 38.3431 15.3431 37 17 37C18.6569 37 20 38.3431 20 40Z" fill="#E7EAE9"/>
<path d="M50 10C50 11.6569 48.6569 13 47 13C45.3431 13 44 11.6569 44 10C44 8.34315 45.3431 7 47 7C48.6569 7 50 8.34315 50 10Z" fill="#E7EAE9"/>
<path d="M20 47C20 48.6569 18.6569 50 17 50C15.3431 50 14 48.6569 14 47C14 45.3431 15.3431 44 17 44C18.6569 44 20 45.3431 20 47Z" fill="#E7EAE9"/>
<path d="M20 54C20 55.6569 18.6569 57 17 57C15.3431 57 14 55.6569 14 54C14 52.3431 15.3431 51 17 51C18.6569 51 20 52.3431 20 54Z" fill="#E7EAE9"/>
<path d="M13 54C13 55.6569 11.6569 57 10 57C8.34315 57 7 55.6569 7 54C7 52.3431 8.34315 51 10 51C11.6569 51 13 52.3431 13 54Z" fill="#E7EAE9"/>
<path d="M13 47C13 48.6569 11.6569 50 10 50C8.34315 50 7 48.6569 7 47C7 45.3431 8.34315 44 10 44C11.6569 44 13 45.3431 13 47Z" fill="#E7EAE9"/>
<path d="M27 54C27 55.6569 25.6569 57 24 57C22.3431 57 21 55.6569 21 54C21 52.3431 22.3431 51 24 51C25.6569 51 27 52.3431 27 54Z" fill="#E7EAE9"/>
<path d="M27 61C27 62.6569 25.6569 64 24 64C22.3431 64 21 62.6569 21 61C21 59.3431 22.3431 58 24 58C25.6569 58 27 59.3431 27 61Z" fill="#E7EAE9"/>
<path d="M27 47C27 48.6569 25.6569 50 24 50C22.3431 50 21 48.6569 21 47C21 45.3431 22.3431 44 24 44C25.6569 44 27 45.3431 27 47Z" fill="#E7EAE9"/>
<path d="M27 40C27 41.6569 25.6569 43 24 43C22.3431 43 21 41.6569 21 40C21 38.3431 22.3431 37 24 37C25.6569 37 27 38.3431 27 40Z" fill="#E7EAE9"/>
<path d="M57 17C57 18.6569 55.6569 20 54 20C52.3431 20 51 18.6569 51 17C51 15.3431 52.3431 14 54 14C55.6569 14 57 15.3431 57 17Z" fill="#E7EAE9"/>
<path d="M6 40C6 41.6569 4.65685 43 3 43C1.34315 43 0 41.6569 0 40C0 38.3431 1.34315 37 3 37C4.65685 37 6 38.3431 6 40Z" fill="#E7EAE9"/>
<path d="M27 33C27 34.6569 25.6569 36 24 36C22.3431 36 21 34.6569 21 33C21 31.3431 22.3431 30 24 30C25.6569 30 27 31.3431 27 33Z" fill="#E7EAE9"/>
<path d="M64 10C64 11.6569 62.6569 13 61 13C59.3431 13 58 11.6569 58 10C58 8.34315 59.3431 7 61 7C62.6569 7 64 8.34315 64 10Z" fill="#E7EAE9"/>
<path d="M6 33C6 34.6569 4.65685 36 3 36C1.34315 36 0 34.6569 0 33C0 31.3431 1.34315 30 3 30C4.65685 30 6 31.3431 6 33Z" fill="#E7EAE9"/>
<path d="M6 26C6 27.6569 4.65685 29 3 29C1.34315 29 0 27.6569 0 26C0 24.3431 1.34315 23 3 23C4.65685 23 6 24.3431 6 26Z" fill="#E7EAE9"/>
<path d="M34 54C34 55.6569 32.6569 57 31 57C29.3431 57 28 55.6569 28 54C28 52.3431 29.3431 51 31 51C32.6569 51 34 52.3431 34 54Z" fill="#E7EAE9"/>
<path d="M34 61C34 62.6569 32.6569 64 31 64C29.3431 64 28 62.6569 28 61C28 59.3431 29.3431 58 31 58C32.6569 58 34 59.3431 34 61Z" fill="#E7EAE9"/>
<path d="M34 47C34 48.6569 32.6569 50 31 50C29.3431 50 28 48.6569 28 47C28 45.3431 29.3431 44 31 44C32.6569 44 34 45.3431 34 47Z" fill="#E7EAE9"/>
<path d="M34 40C34 41.6569 32.6569 43 31 43C29.3431 43 28 41.6569 28 40C28 38.3431 29.3431 37 31 37C32.6569 37 34 38.3431 34 40Z" fill="#E7EAE9"/>
<path d="M13 40C13 41.6569 11.6569 43 10 43C8.34315 43 7 41.6569 7 40C7 38.3431 8.34315 37 10 37C11.6569 37 13 38.3431 13 40Z" fill="#E7EAE9"/>
<path d="M13 33C13 34.6569 11.6569 36 10 36C8.34315 36 7 34.6569 7 33C7 31.3431 8.34315 30 10 30C11.6569 30 13 31.3431 13 33Z" fill="#E7EAE9"/>
<path d="M13 26C13 27.6569 11.6569 29 10 29C8.34315 29 7 27.6569 7 26C7 24.3431 8.34315 23 10 23C11.6569 23 13 24.3431 13 26Z" fill="#E7EAE9"/>
<path d="M13 19C13 20.6569 11.6569 22 10 22C8.34315 22 7 20.6569 7 19C7 17.3431 8.34315 16 10 16C11.6569 16 13 17.3431 13 19Z" fill="#E7EAE9"/>
<path d="M13 12C13 13.6569 11.6569 15 10 15C8.34315 15 7 13.6569 7 12C7 10.3431 8.34315 9 10 9C11.6569 9 13 10.3431 13 12Z" fill="#E7EAE9"/>
<path d="M41 54C41 55.6569 39.6569 57 38 57C36.3431 57 35 55.6569 35 54C35 52.3431 36.3431 51 38 51C39.6569 51 41 52.3431 41 54Z" fill="#E7EAE9"/>
<path d="M41 61C41 62.6569 39.6569 64 38 64C36.3431 64 35 62.6569 35 61C35 59.3431 36.3431 58 38 58C39.6569 58 41 59.3431 41 61Z" fill="#E7EAE9"/>
<path d="M41 47C41 48.6569 39.6569 50 38 50C36.3431 50 35 48.6569 35 47C35 45.3431 36.3431 44 38 44C39.6569 44 41 45.3431 41 47Z" fill="#E7EAE9"/>
<path d="M48 54C48 55.6569 46.6569 57 45 57C43.3431 57 42 55.6569 42 54C42 52.3431 43.3431 51 45 51C46.6569 51 48 52.3431 48 54Z" fill="#E7EAE9"/>
<path d="M48 47C48 48.6569 46.6569 50 45 50C43.3431 50 42 48.6569 42 47C42 45.3431 43.3431 44 45 44C46.6569 44 48 45.3431 48 47Z" fill="#E7EAE9"/>
<path d="M55 54C55 55.6569 53.6569 57 52 57C50.3431 57 49 55.6569 49 54C49 52.3431 50.3431 51 52 51C53.6569 51 55 52.3431 55 54Z" fill="#E7EAE9"/>
<path d="M55 47C55 48.6569 53.6569 50 52 50C50.3431 50 49 48.6569 49 47C49 45.3431 50.3431 44 52 44C53.6569 44 55 45.3431 55 47Z" fill="#E7EAE9"/>
<path d="M62 47C62 48.6569 60.6569 50 59 50C57.3431 50 56 48.6569 56 47C56 45.3431 57.3431 44 59 44C60.6569 44 62 45.3431 62 47Z" fill="#E7EAE9"/>
<path d="M62 40C62 41.6569 60.6569 43 59 43C57.3431 43 56 41.6569 56 40C56 38.3431 57.3431 37 59 37C60.6569 37 62 38.3431 62 40Z" fill="#E7EAE9"/>
</svg>
