<svg width="64" height="64" viewBox="0 0 64 64" fill="none" xmlns="http://www.w3.org/2000/svg">
<path d="M35 3C35 4.65685 33.6569 6 32 6C30.3431 6 29 4.65685 29 3C29 1.34315 30.3431 0 32 0C33.6569 0 35 1.34315 35 3Z" fill="#E7EAE9"/>
<path d="M56 11C56 12.6569 54.6569 14 53 14C51.3431 14 50 12.6569 50 11C50 9.34315 51.3431 8 53 8C54.6569 8 56 9.34315 56 11Z" fill="#E7EAE9"/>
<path d="M64 32C64 33.6569 62.6569 35 61 35C59.3431 35 58 33.6569 58 32C58 30.3431 59.3431 29 61 29C62.6569 29 64 30.3431 64 32Z" fill="#E7EAE9"/>
<path d="M56 53C56 54.6569 54.6569 56 53 56C51.3431 56 50 54.6569 50 53C50 51.3431 51.3431 50 53 50C54.6569 50 56 51.3431 56 53Z" fill="#E7EAE9"/>
<path d="M35 61C35 62.6569 33.6569 64 32 64C30.3431 64 29 62.6569 29 61C29 59.3431 30.3431 58 32 58C33.6569 58 35 59.3431 35 61Z" fill="#E7EAE9"/>
<path d="M14 53C14 54.6569 12.6569 56 11 56C9.34315 56 8 54.6569 8 53C8 51.3431 9.34315 50 11 50C12.6569 50 14 51.3431 14 53Z" fill="#E7EAE9"/>
<path d="M6 32C6 33.6569 4.65685 35 3 35C1.34315 35 0 33.6569 0 32C0 30.3431 1.34315 29 3 29C4.65685 29 6 30.3431 6 32Z" fill="#E7EAE9"/>
<path d="M13 11C13 12.6569 11.6569 14 10 14C8.34315 14 7 12.6569 7 11C7 9.34315 8.34315 8 10 8C11.6569 8 13 9.34315 13 11Z" fill="#E7EAE9"/>
<path d="M28 18C28 19.6569 26.6569 21 25 21C23.3431 21 22 19.6569 22 18C22 16.3431 23.3431 15 25 15C26.6569 15 28 16.3431 28 18Z" fill="#E7EAE9"/>
<path d="M28 25C28 26.6569 26.6569 28 25 28C23.3431 28 22 26.6569 22 25C22 23.3431 23.3431 22 25 22C26.6569 22 28 23.3431 28 25Z" fill="#E7EAE9"/>
<path d="M21 25C21 26.6569 19.6569 28 18 28C16.3431 28 15 26.6569 15 25C15 23.3431 16.3431 22 18 22C19.6569 22 21 23.3431 21 25Z" fill="#E7EAE9"/>
<path d="M49 25C49 26.6569 47.6569 28 46 28C44.3431 28 43 26.6569 43 25C43 23.3431 44.3431 22 46 22C47.6569 22 49 23.3431 49 25Z" fill="#E7EAE9"/>
<path d="M21 32C21 33.6569 19.6569 35 18 35C16.3431 35 15 33.6569 15 32C15 30.3431 16.3431 29 18 29C19.6569 29 21 30.3431 21 32Z" fill="#E7EAE9"/>
<path d="M49 32C49 33.6569 47.6569 35 46 35C44.3431 35 43 33.6569 43 32C43 30.3431 44.3431 29 46 29C47.6569 29 49 30.3431 49 32Z" fill="#E7EAE9"/>
<path d="M21 39C21 40.6569 19.6569 42 18 42C16.3431 42 15 40.6569 15 39C15 37.3431 16.3431 36 18 36C19.6569 36 21 37.3431 21 39Z" fill="#E7EAE9"/>
<path d="M49 39C49 40.6569 47.6569 42 46 42C44.3431 42 43 40.6569 43 39C43 37.3431 44.3431 36 46 36C47.6569 36 49 37.3431 49 39Z" fill="#E7EAE9"/>
<path d="M28 32C28 33.6569 26.6569 35 25 35C23.3431 35 22 33.6569 22 32C22 30.3431 23.3431 29 25 29C26.6569 29 28 30.3431 28 32Z" fill="#E7EAE9"/>
<path d="M28 39C28 40.6569 26.6569 42 25 42C23.3431 42 22 40.6569 22 39C22 37.3431 23.3431 36 25 36C26.6569 36 28 37.3431 28 39Z" fill="#E7EAE9"/>
<path d="M28 46C28 47.6569 26.6569 49 25 49C23.3431 49 22 47.6569 22 46C22 44.3431 23.3431 43 25 43C26.6569 43 28 44.3431 28 46Z" fill="#E7EAE9"/>
<path d="M35 18C35 19.6569 33.6569 21 32 21C30.3431 21 29 19.6569 29 18C29 16.3431 30.3431 15 32 15C33.6569 15 35 16.3431 35 18Z" fill="#E7EAE9"/>
<path d="M35 25C35 26.6569 33.6569 28 32 28C30.3431 28 29 26.6569 29 25C29 23.3431 30.3431 22 32 22C33.6569 22 35 23.3431 35 25Z" fill="#E7EAE9"/>
<path d="M35 32C35 33.6569 33.6569 35 32 35C30.3431 35 29 33.6569 29 32C29 30.3431 30.3431 29 32 29C33.6569 29 35 30.3431 35 32Z" fill="#E7EAE9"/>
<path d="M35 39C35 40.6569 33.6569 42 32 42C30.3431 42 29 40.6569 29 39C29 37.3431 30.3431 36 32 36C33.6569 36 35 37.3431 35 39Z" fill="#E7EAE9"/>
<path d="M35 46C35 47.6569 33.6569 49 32 49C30.3431 49 29 47.6569 29 46C29 44.3431 30.3431 43 32 43C33.6569 43 35 44.3431 35 46Z" fill="#E7EAE9"/>
<path d="M42 18C42 19.6569 40.6569 21 39 21C37.3431 21 36 19.6569 36 18C36 16.3431 37.3431 15 39 15C40.6569 15 42 16.3431 42 18Z" fill="#E7EAE9"/>
<path d="M42 25C42 26.6569 40.6569 28 39 28C37.3431 28 36 26.6569 36 25C36 23.3431 37.3431 22 39 22C40.6569 22 42 23.3431 42 25Z" fill="#E7EAE9"/>
<path d="M42 32C42 33.6569 40.6569 35 39 35C37.3431 35 36 33.6569 36 32C36 30.3431 37.3431 29 39 29C40.6569 29 42 30.3431 42 32Z" fill="#E7EAE9"/>
<path d="M42 39C42 40.6569 40.6569 42 39 42C37.3431 42 36 40.6569 36 39C36 37.3431 37.3431 36 39 36C40.6569 36 42 37.3431 42 39Z" fill="#E7EAE9"/>
<path d="M42 46C42 47.6569 40.6569 49 39 49C37.3431 49 36 47.6569 36 46C36 44.3431 37.3431 43 39 43C40.6569 43 42 44.3431 42 46Z" fill="#E7EAE9"/>
</svg>
