<svg width="76" height="41" viewBox="0 0 76 41" fill="none" xmlns="http://www.w3.org/2000/svg">
<path d="M27 10C27 11.6569 25.6569 13 24 13C22.3431 13 21 11.6569 21 10C21 8.34315 22.3431 7 24 7C25.6569 7 27 8.34315 27 10Z" fill="#E7EAE9"/>
<path d="M27 17C27 18.6569 25.6569 20 24 20C22.3431 20 21 18.6569 21 17C21 15.3431 22.3431 14 24 14C25.6569 14 27 15.3431 27 17Z" fill="#E7EAE9"/>
<path d="M41 17C41 18.6569 39.6569 20 38 20C36.3431 20 35 18.6569 35 17C35 15.3431 36.3431 14 38 14C39.6569 14 41 15.3431 41 17Z" fill="#E7EAE9"/>
<path d="M41 10C41 11.6569 39.6569 13 38 13C36.3431 13 35 11.6569 35 10C35 8.34315 36.3431 7 38 7C39.6569 7 41 8.34315 41 10Z" fill="#E7EAE9"/>
<path d="M41 24C41 25.6569 39.6569 27 38 27C36.3431 27 35 25.6569 35 24C35 22.3431 36.3431 21 38 21C39.6569 21 41 22.3431 41 24Z" fill="#E7EAE9"/>
<path d="M41 31C41 32.6569 39.6569 34 38 34C36.3431 34 35 32.6569 35 31C35 29.3431 36.3431 28 38 28C39.6569 28 41 29.3431 41 31Z" fill="#E7EAE9"/>
<path d="M41 38C41 39.6569 39.6569 41 38 41C36.3431 41 35 39.6569 35 38C35 36.3431 36.3431 35 38 35C39.6569 35 41 36.3431 41 38Z" fill="#E7EAE9"/>
<path d="M55 17C55 18.6569 53.6569 20 52 20C50.3431 20 49 18.6569 49 17C49 15.3431 50.3431 14 52 14C53.6569 14 55 15.3431 55 17Z" fill="#E7EAE9"/>
<path d="M55 10C55 11.6569 53.6569 13 52 13C50.3431 13 49 11.6569 49 10C49 8.34315 50.3431 7 52 7C53.6569 7 55 8.34315 55 10Z" fill="#E7EAE9"/>
<path d="M55 3C55 4.65685 53.6569 6 52 6C50.3431 6 49 4.65685 49 3C49 1.34315 50.3431 0 52 0C53.6569 0 55 1.34315 55 3Z" fill="#E7EAE9"/>
<path d="M55 24C55 25.6569 53.6569 27 52 27C50.3431 27 49 25.6569 49 24C49 22.3431 50.3431 21 52 21C53.6569 21 55 22.3431 55 24Z" fill="#E7EAE9"/>
<path d="M55 31C55 32.6569 53.6569 34 52 34C50.3431 34 49 32.6569 49 31C49 29.3431 50.3431 28 52 28C53.6569 28 55 29.3431 55 31Z" fill="#E7EAE9"/>
<path d="M55 38C55 39.6569 53.6569 41 52 41C50.3431 41 49 39.6569 49 38C49 36.3431 50.3431 35 52 35C53.6569 35 55 36.3431 55 38Z" fill="#E7EAE9"/>
<path d="M69 17C69 18.6569 67.6569 20 66 20C64.3431 20 63 18.6569 63 17C63 15.3431 64.3431 14 66 14C67.6569 14 69 15.3431 69 17Z" fill="#E7EAE9"/>
<path d="M76 17C76 18.6569 74.6569 20 73 20C71.3431 20 70 18.6569 70 17C70 15.3431 71.3431 14 73 14C74.6569 14 76 15.3431 76 17Z" fill="#E7EAE9"/>
<path d="M69 10C69 11.6569 67.6569 13 66 13C64.3431 13 63 11.6569 63 10C63 8.34315 64.3431 7 66 7C67.6569 7 69 8.34315 69 10Z" fill="#E7EAE9"/>
<path d="M69 24C69 25.6569 67.6569 27 66 27C64.3431 27 63 25.6569 63 24C63 22.3431 64.3431 21 66 21C67.6569 21 69 22.3431 69 24Z" fill="#E7EAE9"/>
<path d="M76 24C76 25.6569 74.6569 27 73 27C71.3431 27 70 25.6569 70 24C70 22.3431 71.3431 21 73 21C74.6569 21 76 22.3431 76 24Z" fill="#E7EAE9"/>
<path d="M69 31C69 32.6569 67.6569 34 66 34C64.3431 34 63 32.6569 63 31C63 29.3431 64.3431 28 66 28C67.6569 28 69 29.3431 69 31Z" fill="#E7EAE9"/>
<path d="M76 31C76 32.6569 74.6569 34 73 34C71.3431 34 70 32.6569 70 31C70 29.3431 71.3431 28 73 28C74.6569 28 76 29.3431 76 31Z" fill="#E7EAE9"/>
<path d="M69 38C69 39.6569 67.6569 41 66 41C64.3431 41 63 39.6569 63 38C63 36.3431 64.3431 35 66 35C67.6569 35 69 36.3431 69 38Z" fill="#E7EAE9"/>
<path d="M27 24C27 25.6569 25.6569 27 24 27C22.3431 27 21 25.6569 21 24C21 22.3431 22.3431 21 24 21C25.6569 21 27 22.3431 27 24Z" fill="#E7EAE9"/>
<path d="M13 24C13 25.6569 11.6569 27 10 27C8.34315 27 7 25.6569 7 24C7 22.3431 8.34315 21 10 21C11.6569 21 13 22.3431 13 24Z" fill="#E7EAE9"/>
<path d="M13 17C13 18.6569 11.6569 20 10 20C8.34315 20 7 18.6569 7 17C7 15.3431 8.34315 14 10 14C11.6569 14 13 15.3431 13 17Z" fill="#E7EAE9"/>
<path d="M13 31C13 32.6569 11.6569 34 10 34C8.34315 34 7 32.6569 7 31C7 29.3431 8.34315 28 10 28C11.6569 28 13 29.3431 13 31Z" fill="#E7EAE9"/>
<path d="M13 38C13 39.6569 11.6569 41 10 41C8.34315 41 7 39.6569 7 38C7 36.3431 8.34315 35 10 35C11.6569 35 13 36.3431 13 38Z" fill="#E7EAE9"/>
<path d="M27 31C27 32.6569 25.6569 34 24 34C22.3431 34 21 32.6569 21 31C21 29.3431 22.3431 28 24 28C25.6569 28 27 29.3431 27 31Z" fill="#E7EAE9"/>
<path d="M27 38C27 39.6569 25.6569 41 24 41C22.3431 41 21 39.6569 21 38C21 36.3431 22.3431 35 24 35C25.6569 35 27 36.3431 27 38Z" fill="#E7EAE9"/>
<path d="M20 10C20 11.6569 18.6569 13 17 13C15.3431 13 14 11.6569 14 10C14 8.34315 15.3431 7 17 7C18.6569 7 20 8.34315 20 10Z" fill="#E7EAE9"/>
<path d="M20 17C20 18.6569 18.6569 20 17 20C15.3431 20 14 18.6569 14 17C14 15.3431 15.3431 14 17 14C18.6569 14 20 15.3431 20 17Z" fill="#E7EAE9"/>
<path d="M34 17C34 18.6569 32.6569 20 31 20C29.3431 20 28 18.6569 28 17C28 15.3431 29.3431 14 31 14C32.6569 14 34 15.3431 34 17Z" fill="#E7EAE9"/>
<path d="M34 24C34 25.6569 32.6569 27 31 27C29.3431 27 28 25.6569 28 24C28 22.3431 29.3431 21 31 21C32.6569 21 34 22.3431 34 24Z" fill="#E7EAE9"/>
<path d="M34 31C34 32.6569 32.6569 34 31 34C29.3431 34 28 32.6569 28 31C28 29.3431 29.3431 28 31 28C32.6569 28 34 29.3431 34 31Z" fill="#E7EAE9"/>
<path d="M34 38C34 39.6569 32.6569 41 31 41C29.3431 41 28 39.6569 28 38C28 36.3431 29.3431 35 31 35C32.6569 35 34 36.3431 34 38Z" fill="#E7EAE9"/>
<path d="M48 17C48 18.6569 46.6569 20 45 20C43.3431 20 42 18.6569 42 17C42 15.3431 43.3431 14 45 14C46.6569 14 48 15.3431 48 17Z" fill="#E7EAE9"/>
<path d="M48 10C48 11.6569 46.6569 13 45 13C43.3431 13 42 11.6569 42 10C42 8.34315 43.3431 7 45 7C46.6569 7 48 8.34315 48 10Z" fill="#E7EAE9"/>
<path d="M48 3C48 4.65685 46.6569 6 45 6C43.3431 6 42 4.65685 42 3C42 1.34315 43.3431 0 45 0C46.6569 0 48 1.34315 48 3Z" fill="#E7EAE9"/>
<path d="M48 24C48 25.6569 46.6569 27 45 27C43.3431 27 42 25.6569 42 24C42 22.3431 43.3431 21 45 21C46.6569 21 48 22.3431 48 24Z" fill="#E7EAE9"/>
<path d="M48 31C48 32.6569 46.6569 34 45 34C43.3431 34 42 32.6569 42 31C42 29.3431 43.3431 28 45 28C46.6569 28 48 29.3431 48 31Z" fill="#E7EAE9"/>
<path d="M48 38C48 39.6569 46.6569 41 45 41C43.3431 41 42 39.6569 42 38C42 36.3431 43.3431 35 45 35C46.6569 35 48 36.3431 48 38Z" fill="#E7EAE9"/>
<path d="M62 17C62 18.6569 60.6569 20 59 20C57.3431 20 56 18.6569 56 17C56 15.3431 57.3431 14 59 14C60.6569 14 62 15.3431 62 17Z" fill="#E7EAE9"/>
<path d="M62 10C62 11.6569 60.6569 13 59 13C57.3431 13 56 11.6569 56 10C56 8.34315 57.3431 7 59 7C60.6569 7 62 8.34315 62 10Z" fill="#E7EAE9"/>
<path d="M62 3C62 4.65685 60.6569 6 59 6C57.3431 6 56 4.65685 56 3C56 1.34315 57.3431 0 59 0C60.6569 0 62 1.34315 62 3Z" fill="#E7EAE9"/>
<path d="M62 24C62 25.6569 60.6569 27 59 27C57.3431 27 56 25.6569 56 24C56 22.3431 57.3431 21 59 21C60.6569 21 62 22.3431 62 24Z" fill="#E7EAE9"/>
<path d="M62 31C62 32.6569 60.6569 34 59 34C57.3431 34 56 32.6569 56 31C56 29.3431 57.3431 28 59 28C60.6569 28 62 29.3431 62 31Z" fill="#E7EAE9"/>
<path d="M62 38C62 39.6569 60.6569 41 59 41C57.3431 41 56 39.6569 56 38C56 36.3431 57.3431 35 59 35C60.6569 35 62 36.3431 62 38Z" fill="#E7EAE9"/>
<path d="M20 24C20 25.6569 18.6569 27 17 27C15.3431 27 14 25.6569 14 24C14 22.3431 15.3431 21 17 21C18.6569 21 20 22.3431 20 24Z" fill="#E7EAE9"/>
<path d="M6 24C6 25.6569 4.65685 27 3 27C1.34315 27 0 25.6569 0 24C0 22.3431 1.34315 21 3 21C4.65685 21 6 22.3431 6 24Z" fill="#E7EAE9"/>
<path d="M6 31C6 32.6569 4.65685 34 3 34C1.34315 34 0 32.6569 0 31C0 29.3431 1.34315 28 3 28C4.65685 28 6 29.3431 6 31Z" fill="#E7EAE9"/>
<path d="M20 31C20 32.6569 18.6569 34 17 34C15.3431 34 14 32.6569 14 31C14 29.3431 15.3431 28 17 28C18.6569 28 20 29.3431 20 31Z" fill="#E7EAE9"/>
<path d="M20 38C20 39.6569 18.6569 41 17 41C15.3431 41 14 39.6569 14 38C14 36.3431 15.3431 35 17 35C18.6569 35 20 36.3431 20 38Z" fill="#E7EAE9"/>
</svg>
