<svg width="48" height="56" viewBox="0 0 48 56" fill="none" xmlns="http://www.w3.org/2000/svg">
<path d="M20 3C20 4.65685 18.6569 6 17 6C15.3431 6 14 4.65685 14 3C14 1.34315 15.3431 0 17 0C18.6569 0 20 1.34315 20 3Z" fill="#E7EAE9"/>
<path d="M20 10C20 11.6569 18.6569 13 17 13C15.3431 13 14 11.6569 14 10C14 8.34315 15.3431 7 17 7C18.6569 7 20 8.34315 20 10Z" fill="#E7EAE9"/>
<path d="M6 18C6 19.6569 4.65685 21 3 21C1.34315 21 0 19.6569 0 18C0 16.3431 1.34315 15 3 15C4.65685 15 6 16.3431 6 18Z" fill="#E7EAE9"/>
<path d="M6 25C6 26.6569 4.65685 28 3 28C1.34315 28 0 26.6569 0 25C0 23.3431 1.34315 22 3 22C4.65685 22 6 23.3431 6 25Z" fill="#E7EAE9"/>
<path d="M6 32C6 33.6569 4.65685 35 3 35C1.34315 35 0 33.6569 0 32C0 30.3431 1.34315 29 3 29C4.65685 29 6 30.3431 6 32Z" fill="#E7EAE9"/>
<path d="M34 18C34 19.6569 32.6569 21 31 21C29.3431 21 28 19.6569 28 18C28 16.3431 29.3431 15 31 15C32.6569 15 34 16.3431 34 18Z" fill="#E7EAE9"/>
<path d="M34 32C34 33.6569 32.6569 35 31 35C29.3431 35 28 33.6569 28 32C28 30.3431 29.3431 29 31 29C32.6569 29 34 30.3431 34 32Z" fill="#E7EAE9"/>
<path d="M20 39C20 40.6569 18.6569 42 17 42C15.3431 42 14 40.6569 14 39C14 37.3431 15.3431 36 17 36C18.6569 36 20 37.3431 20 39Z" fill="#E7EAE9"/>
<path d="M20 46C20 47.6569 18.6569 49 17 49C15.3431 49 14 47.6569 14 46C14 44.3431 15.3431 43 17 43C18.6569 43 20 44.3431 20 46Z" fill="#E7EAE9"/>
<path d="M27 3C27 4.65685 25.6569 6 24 6C22.3431 6 21 4.65685 21 3C21 1.34315 22.3431 0 24 0C25.6569 0 27 1.34315 27 3Z" fill="#E7EAE9"/>
<path d="M27 10C27 11.6569 25.6569 13 24 13C22.3431 13 21 11.6569 21 10C21 8.34315 22.3431 7 24 7C25.6569 7 27 8.34315 27 10Z" fill="#E7EAE9"/>
<path d="M13 18C13 19.6569 11.6569 21 10 21C8.34315 21 7 19.6569 7 18C7 16.3431 8.34315 15 10 15C11.6569 15 13 16.3431 13 18Z" fill="#E7EAE9"/>
<path d="M13 10C13 11.6569 11.6569 13 10 13C8.34315 13 7 11.6569 7 10C7 8.34315 8.34315 7 10 7C11.6569 7 13 8.34315 13 10Z" fill="#E7EAE9"/>
<path d="M13 39C13 40.6569 11.6569 42 10 42C8.34315 42 7 40.6569 7 39C7 37.3431 8.34315 36 10 36C11.6569 36 13 37.3431 13 39Z" fill="#E7EAE9"/>
<path d="M41 10C41 11.6569 39.6569 13 38 13C36.3431 13 35 11.6569 35 10C35 8.34315 36.3431 7 38 7C39.6569 7 41 8.34315 41 10Z" fill="#E7EAE9"/>
<path d="M41 39C41 40.6569 39.6569 42 38 42C36.3431 42 35 40.6569 35 39C35 37.3431 36.3431 36 38 36C39.6569 36 41 37.3431 41 39Z" fill="#E7EAE9"/>
<path d="M13 25C13 26.6569 11.6569 28 10 28C8.34315 28 7 26.6569 7 25C7 23.3431 8.34315 22 10 22C11.6569 22 13 23.3431 13 25Z" fill="#E7EAE9"/>
<path d="M13 32C13 33.6569 11.6569 35 10 35C8.34315 35 7 33.6569 7 32C7 30.3431 8.34315 29 10 29C11.6569 29 13 30.3431 13 32Z" fill="#E7EAE9"/>
<path d="M41 18C41 19.6569 39.6569 21 38 21C36.3431 21 35 19.6569 35 18C35 16.3431 36.3431 15 38 15C39.6569 15 41 16.3431 41 18Z" fill="#E7EAE9"/>
<path d="M41 25C41 26.6569 39.6569 28 38 28C36.3431 28 35 26.6569 35 25C35 23.3431 36.3431 22 38 22C39.6569 22 41 23.3431 41 25Z" fill="#E7EAE9"/>
<path d="M41 32C41 33.6569 39.6569 35 38 35C36.3431 35 35 33.6569 35 32C35 30.3431 36.3431 29 38 29C39.6569 29 41 30.3431 41 32Z" fill="#E7EAE9"/>
<path d="M27 39C27 40.6569 25.6569 42 24 42C22.3431 42 21 40.6569 21 39C21 37.3431 22.3431 36 24 36C25.6569 36 27 37.3431 27 39Z" fill="#E7EAE9"/>
<path d="M27 46C27 47.6569 25.6569 49 24 49C22.3431 49 21 47.6569 21 46C21 44.3431 22.3431 43 24 43C25.6569 43 27 44.3431 27 46Z" fill="#E7EAE9"/>
<path d="M27 53C27 54.6569 25.6569 56 24 56C22.3431 56 21 54.6569 21 53C21 51.3431 22.3431 50 24 50C25.6569 50 27 51.3431 27 53Z" fill="#E7EAE9"/>
<path d="M34 3C34 4.65685 32.6569 6 31 6C29.3431 6 28 4.65685 28 3C28 1.34315 29.3431 0 31 0C32.6569 0 34 1.34315 34 3Z" fill="#E7EAE9"/>
<path d="M34 10C34 11.6569 32.6569 13 31 13C29.3431 13 28 11.6569 28 10C28 8.34315 29.3431 7 31 7C32.6569 7 34 8.34315 34 10Z" fill="#E7EAE9"/>
<path d="M20 18C20 19.6569 18.6569 21 17 21C15.3431 21 14 19.6569 14 18C14 16.3431 15.3431 15 17 15C18.6569 15 20 16.3431 20 18Z" fill="#E7EAE9"/>
<path d="M20 32C20 33.6569 18.6569 35 17 35C15.3431 35 14 33.6569 14 32C14 30.3431 15.3431 29 17 29C18.6569 29 20 30.3431 20 32Z" fill="#E7EAE9"/>
<path d="M48 18C48 19.6569 46.6569 21 45 21C43.3431 21 42 19.6569 42 18C42 16.3431 43.3431 15 45 15C46.6569 15 48 16.3431 48 18Z" fill="#E7EAE9"/>
<path d="M48 25C48 26.6569 46.6569 28 45 28C43.3431 28 42 26.6569 42 25C42 23.3431 43.3431 22 45 22C46.6569 22 48 23.3431 48 25Z" fill="#E7EAE9"/>
<path d="M48 32C48 33.6569 46.6569 35 45 35C43.3431 35 42 33.6569 42 32C42 30.3431 43.3431 29 45 29C46.6569 29 48 30.3431 48 32Z" fill="#E7EAE9"/>
<path d="M34 39C34 40.6569 32.6569 42 31 42C29.3431 42 28 40.6569 28 39C28 37.3431 29.3431 36 31 36C32.6569 36 34 37.3431 34 39Z" fill="#E7EAE9"/>
<path d="M34 46C34 47.6569 32.6569 49 31 49C29.3431 49 28 47.6569 28 46C28 44.3431 29.3431 43 31 43C32.6569 43 34 44.3431 34 46Z" fill="#E7EAE9"/>
</svg>
