<svg width="84" height="71" viewBox="0 0 84 71" fill="none" xmlns="http://www.w3.org/2000/svg">
<path d="M28 12C28 13.6569 26.6569 15 25 15C23.3431 15 22 13.6569 22 12C22 10.3431 23.3431 9 25 9C26.6569 9 28 10.3431 28 12Z" fill="#E7EAE9"/>
<path d="M20 12C20 13.6569 18.6569 15 17 15C15.3431 15 14 13.6569 14 12C14 10.3431 15.3431 9 17 9C18.6569 9 20 10.3431 20 12Z" fill="#E7EAE9"/>
<path d="M20 19C20 20.6569 18.6569 22 17 22C15.3431 22 14 20.6569 14 19C14 17.3431 15.3431 16 17 16C18.6569 16 20 17.3431 20 19Z" fill="#E7EAE9"/>
<path d="M20 26C20 27.6569 18.6569 29 17 29C15.3431 29 14 27.6569 14 26C14 24.3431 15.3431 23 17 23C18.6569 23 20 24.3431 20 26Z" fill="#E7EAE9"/>
<path d="M20 33C20 34.6569 18.6569 36 17 36C15.3431 36 14 34.6569 14 33C14 31.3431 15.3431 30 17 30C18.6569 30 20 31.3431 20 33Z" fill="#E7EAE9"/>
<path d="M20 40C20 41.6569 18.6569 43 17 43C15.3431 43 14 41.6569 14 40C14 38.3431 15.3431 37 17 37C18.6569 37 20 38.3431 20 40Z" fill="#E7EAE9"/>
<path d="M20 47C20 48.6569 18.6569 50 17 50C15.3431 50 14 48.6569 14 47C14 45.3431 15.3431 44 17 44C18.6569 44 20 45.3431 20 47Z" fill="#E7EAE9"/>
<path d="M20 54C20 55.6569 18.6569 57 17 57C15.3431 57 14 55.6569 14 54C14 52.3431 15.3431 51 17 51C18.6569 51 20 52.3431 20 54Z" fill="#E7EAE9"/>
<path d="M20 61C20 62.6569 18.6569 64 17 64C15.3431 64 14 62.6569 14 61C14 59.3431 15.3431 58 17 58C18.6569 58 20 59.3431 20 61Z" fill="#E7EAE9"/>
<path d="M13 61C13 62.6569 11.6569 64 10 64C8.34315 64 7 62.6569 7 61C7 59.3431 8.34315 58 10 58C11.6569 58 13 59.3431 13 61Z" fill="#E7EAE9"/>
<path d="M13 54C13 55.6569 11.6569 57 10 57C8.34315 57 7 55.6569 7 54C7 52.3431 8.34315 51 10 51C11.6569 51 13 52.3431 13 54Z" fill="#E7EAE9"/>
<path d="M27 61C27 62.6569 25.6569 64 24 64C22.3431 64 21 62.6569 21 61C21 59.3431 22.3431 58 24 58C25.6569 58 27 59.3431 27 61Z" fill="#E7EAE9"/>
<path d="M27 68C27 69.6569 25.6569 71 24 71C22.3431 71 21 69.6569 21 68C21 66.3431 22.3431 65 24 65C25.6569 65 27 66.3431 27 68Z" fill="#E7EAE9"/>
<path d="M27 54C27 55.6569 25.6569 57 24 57C22.3431 57 21 55.6569 21 54C21 52.3431 22.3431 51 24 51C25.6569 51 27 52.3431 27 54Z" fill="#E7EAE9"/>
<path d="M27 47C27 48.6569 25.6569 50 24 50C22.3431 50 21 48.6569 21 47C21 45.3431 22.3431 44 24 44C25.6569 44 27 45.3431 27 47Z" fill="#E7EAE9"/>
<path d="M6 47C6 48.6569 4.65685 50 3 50C1.34315 50 0 48.6569 0 47C0 45.3431 1.34315 44 3 44C4.65685 44 6 45.3431 6 47Z" fill="#E7EAE9"/>
<path d="M27 40C27 41.6569 25.6569 43 24 43C22.3431 43 21 41.6569 21 40C21 38.3431 22.3431 37 24 37C25.6569 37 27 38.3431 27 40Z" fill="#E7EAE9"/>
<path d="M6 40C6 41.6569 4.65685 43 3 43C1.34315 43 0 41.6569 0 40C0 38.3431 1.34315 37 3 37C4.65685 37 6 38.3431 6 40Z" fill="#E7EAE9"/>
<path d="M6 33C6 34.6569 4.65685 36 3 36C1.34315 36 0 34.6569 0 33C0 31.3431 1.34315 30 3 30C4.65685 30 6 31.3431 6 33Z" fill="#E7EAE9"/>
<path d="M34 61C34 62.6569 32.6569 64 31 64C29.3431 64 28 62.6569 28 61C28 59.3431 29.3431 58 31 58C32.6569 58 34 59.3431 34 61Z" fill="#E7EAE9"/>
<path d="M34 68C34 69.6569 32.6569 71 31 71C29.3431 71 28 69.6569 28 68C28 66.3431 29.3431 65 31 65C32.6569 65 34 66.3431 34 68Z" fill="#E7EAE9"/>
<path d="M34 54C34 55.6569 32.6569 57 31 57C29.3431 57 28 55.6569 28 54C28 52.3431 29.3431 51 31 51C32.6569 51 34 52.3431 34 54Z" fill="#E7EAE9"/>
<path d="M34 47C34 48.6569 32.6569 50 31 50C29.3431 50 28 48.6569 28 47C28 45.3431 29.3431 44 31 44C32.6569 44 34 45.3431 34 47Z" fill="#E7EAE9"/>
<path d="M13 47C13 48.6569 11.6569 50 10 50C8.34315 50 7 48.6569 7 47C7 45.3431 8.34315 44 10 44C11.6569 44 13 45.3431 13 47Z" fill="#E7EAE9"/>
<path d="M13 40C13 41.6569 11.6569 43 10 43C8.34315 43 7 41.6569 7 40C7 38.3431 8.34315 37 10 37C11.6569 37 13 38.3431 13 40Z" fill="#E7EAE9"/>
<path d="M13 33C13 34.6569 11.6569 36 10 36C8.34315 36 7 34.6569 7 33C7 31.3431 8.34315 30 10 30C11.6569 30 13 31.3431 13 33Z" fill="#E7EAE9"/>
<path d="M13 26C13 27.6569 11.6569 29 10 29C8.34315 29 7 27.6569 7 26C7 24.3431 8.34315 23 10 23C11.6569 23 13 24.3431 13 26Z" fill="#E7EAE9"/>
<path d="M13 19C13 20.6569 11.6569 22 10 22C8.34315 22 7 20.6569 7 19C7 17.3431 8.34315 16 10 16C11.6569 16 13 17.3431 13 19Z" fill="#E7EAE9"/>
<path d="M41 61C41 62.6569 39.6569 64 38 64C36.3431 64 35 62.6569 35 61C35 59.3431 36.3431 58 38 58C39.6569 58 41 59.3431 41 61Z" fill="#E7EAE9"/>
<path d="M41 68C41 69.6569 39.6569 71 38 71C36.3431 71 35 69.6569 35 68C35 66.3431 36.3431 65 38 65C39.6569 65 41 66.3431 41 68Z" fill="#E7EAE9"/>
<path d="M41 54C41 55.6569 39.6569 57 38 57C36.3431 57 35 55.6569 35 54C35 52.3431 36.3431 51 38 51C39.6569 51 41 52.3431 41 54Z" fill="#E7EAE9"/>
<path d="M48 61C48 62.6569 46.6569 64 45 64C43.3431 64 42 62.6569 42 61C42 59.3431 43.3431 58 45 58C46.6569 58 48 59.3431 48 61Z" fill="#E7EAE9"/>
<path d="M48 54C48 55.6569 46.6569 57 45 57C43.3431 57 42 55.6569 42 54C42 52.3431 43.3431 51 45 51C46.6569 51 48 52.3431 48 54Z" fill="#E7EAE9"/>
<path d="M55 61C55 62.6569 53.6569 64 52 64C50.3431 64 49 62.6569 49 61C49 59.3431 50.3431 58 52 58C53.6569 58 55 59.3431 55 61Z" fill="#E7EAE9"/>
<path d="M55 54C55 55.6569 53.6569 57 52 57C50.3431 57 49 55.6569 49 54C49 52.3431 50.3431 51 52 51C53.6569 51 55 52.3431 55 54Z" fill="#E7EAE9"/>
<path d="M62 54C62 55.6569 60.6569 57 59 57C57.3431 57 56 55.6569 56 54C56 52.3431 57.3431 51 59 51C60.6569 51 62 52.3431 62 54Z" fill="#E7EAE9"/>
<path d="M62 47C62 48.6569 60.6569 50 59 50C57.3431 50 56 48.6569 56 47C56 45.3431 57.3431 44 59 44C60.6569 44 62 45.3431 62 47Z" fill="#E7EAE9"/>
<path d="M55.6316 5.85366C55.6316 6.82352 54.854 7.60976 53.8947 7.60976C52.9355 7.60976 52.1579 6.82352 52.1579 5.85366C52.1579 4.88379 52.9355 4.09756 53.8947 4.09756C54.854 4.09756 55.6316 4.88379 55.6316 5.85366Z" fill="#E7EAE9"/>
<path d="M55.6316 9.95122C55.6316 10.9211 54.854 11.7073 53.8947 11.7073C52.9355 11.7073 52.1579 10.9211 52.1579 9.95122C52.1579 8.98135 52.9355 8.19512 53.8947 8.19512C54.854 8.19512 55.6316 8.98135 55.6316 9.95122Z" fill="#E7EAE9"/>
<path d="M63.7368 9.95122C63.7368 10.9211 62.9592 11.7073 62 11.7073C61.0408 11.7073 60.2632 10.9211 60.2632 9.95122C60.2632 8.98135 61.0408 8.19512 62 8.19512C62.9592 8.19512 63.7368 8.98135 63.7368 9.95122Z" fill="#E7EAE9"/>
<path d="M63.7368 5.85366C63.7368 6.82352 62.9592 7.60976 62 7.60976C61.0408 7.60976 60.2632 6.82352 60.2632 5.85366C60.2632 4.88379 61.0408 4.09756 62 4.09756C62.9592 4.09756 63.7368 4.88379 63.7368 5.85366Z" fill="#E7EAE9"/>
<path d="M63.7368 14.0488C63.7368 15.0186 62.9592 15.8049 62 15.8049C61.0408 15.8049 60.2632 15.0186 60.2632 14.0488C60.2632 13.0789 61.0408 12.2927 62 12.2927C62.9592 12.2927 63.7368 13.0789 63.7368 14.0488Z" fill="#E7EAE9"/>
<path d="M63.7368 18.1463C63.7368 19.1162 62.9592 19.9024 62 19.9024C61.0408 19.9024 60.2632 19.1162 60.2632 18.1463C60.2632 17.1765 61.0408 16.3902 62 16.3902C62.9592 16.3902 63.7368 17.1765 63.7368 18.1463Z" fill="#E7EAE9"/>
<path d="M63.7368 22.2439C63.7368 23.2138 62.9592 24 62 24C61.0408 24 60.2632 23.2138 60.2632 22.2439C60.2632 21.274 61.0408 20.4878 62 20.4878C62.9592 20.4878 63.7368 21.274 63.7368 22.2439Z" fill="#E7EAE9"/>
<path d="M71.8421 9.95122C71.8421 10.9211 71.0645 11.7073 70.1053 11.7073C69.146 11.7073 68.3684 10.9211 68.3684 9.95122C68.3684 8.98135 69.146 8.19512 70.1053 8.19512C71.0645 8.19512 71.8421 8.98135 71.8421 9.95122Z" fill="#E7EAE9"/>
<path d="M71.8421 5.85366C71.8421 6.82352 71.0645 7.60976 70.1053 7.60976C69.146 7.60976 68.3684 6.82352 68.3684 5.85366C68.3684 4.88379 69.146 4.09756 70.1053 4.09756C71.0645 4.09756 71.8421 4.88379 71.8421 5.85366Z" fill="#E7EAE9"/>
<path d="M71.8421 1.7561C71.8421 2.72596 71.0645 3.5122 70.1053 3.5122C69.146 3.5122 68.3684 2.72596 68.3684 1.7561C68.3684 0.786232 69.146 0 70.1053 0C71.0645 0 71.8421 0.786232 71.8421 1.7561Z" fill="#E7EAE9"/>
<path d="M71.8421 14.0488C71.8421 15.0186 71.0645 15.8049 70.1053 15.8049C69.146 15.8049 68.3684 15.0186 68.3684 14.0488C68.3684 13.0789 69.146 12.2927 70.1053 12.2927C71.0645 12.2927 71.8421 13.0789 71.8421 14.0488Z" fill="#E7EAE9"/>
<path d="M71.8421 18.1463C71.8421 19.1162 71.0645 19.9024 70.1053 19.9024C69.146 19.9024 68.3684 19.1162 68.3684 18.1463C68.3684 17.1765 69.146 16.3902 70.1053 16.3902C71.0645 16.3902 71.8421 17.1765 71.8421 18.1463Z" fill="#E7EAE9"/>
<path d="M71.8421 22.2439C71.8421 23.2138 71.0645 24 70.1053 24C69.146 24 68.3684 23.2138 68.3684 22.2439C68.3684 21.274 69.146 20.4878 70.1053 20.4878C71.0645 20.4878 71.8421 21.274 71.8421 22.2439Z" fill="#E7EAE9"/>
<path d="M79.9474 9.95122C79.9474 10.9211 79.1698 11.7073 78.2105 11.7073C77.2513 11.7073 76.4737 10.9211 76.4737 9.95122C76.4737 8.98135 77.2513 8.19512 78.2105 8.19512C79.1698 8.19512 79.9474 8.98135 79.9474 9.95122Z" fill="#E7EAE9"/>
<path d="M84 9.95122C84 10.9211 83.2224 11.7073 82.2632 11.7073C81.3039 11.7073 80.5263 10.9211 80.5263 9.95122C80.5263 8.98135 81.3039 8.19512 82.2632 8.19512C83.2224 8.19512 84 8.98135 84 9.95122Z" fill="#E7EAE9"/>
<path d="M79.9474 5.85366C79.9474 6.82352 79.1698 7.60976 78.2105 7.60976C77.2513 7.60976 76.4737 6.82352 76.4737 5.85366C76.4737 4.88379 77.2513 4.09756 78.2105 4.09756C79.1698 4.09756 79.9474 4.88379 79.9474 5.85366Z" fill="#E7EAE9"/>
<path d="M79.9474 14.0488C79.9474 15.0186 79.1698 15.8049 78.2105 15.8049C77.2513 15.8049 76.4737 15.0186 76.4737 14.0488C76.4737 13.0789 77.2513 12.2927 78.2105 12.2927C79.1698 12.2927 79.9474 13.0789 79.9474 14.0488Z" fill="#E7EAE9"/>
<path d="M84 14.0488C84 15.0186 83.2224 15.8049 82.2632 15.8049C81.3039 15.8049 80.5263 15.0186 80.5263 14.0488C80.5263 13.0789 81.3039 12.2927 82.2632 12.2927C83.2224 12.2927 84 13.0789 84 14.0488Z" fill="#E7EAE9"/>
<path d="M79.9474 18.1463C79.9474 19.1162 79.1698 19.9024 78.2105 19.9024C77.2513 19.9024 76.4737 19.1162 76.4737 18.1463C76.4737 17.1765 77.2513 16.3902 78.2105 16.3902C79.1698 16.3902 79.9474 17.1765 79.9474 18.1463Z" fill="#E7EAE9"/>
<path d="M84 18.1463C84 19.1162 83.2224 19.9024 82.2632 19.9024C81.3039 19.9024 80.5263 19.1162 80.5263 18.1463C80.5263 17.1765 81.3039 16.3902 82.2632 16.3902C83.2224 16.3902 84 17.1765 84 18.1463Z" fill="#E7EAE9"/>
<path d="M79.9474 22.2439C79.9474 23.2138 79.1698 24 78.2105 24C77.2513 24 76.4737 23.2138 76.4737 22.2439C76.4737 21.274 77.2513 20.4878 78.2105 20.4878C79.1698 20.4878 79.9474 21.274 79.9474 22.2439Z" fill="#E7EAE9"/>
<path d="M55.6316 14.0488C55.6316 15.0186 54.854 15.8049 53.8947 15.8049C52.9355 15.8049 52.1579 15.0186 52.1579 14.0488C52.1579 13.0789 52.9355 12.2927 53.8947 12.2927C54.854 12.2927 55.6316 13.0789 55.6316 14.0488Z" fill="#E7EAE9"/>
<path d="M47.5263 14.0488C47.5263 15.0186 46.7487 15.8049 45.7895 15.8049C44.8302 15.8049 44.0526 15.0186 44.0526 14.0488C44.0526 13.0789 44.8302 12.2927 45.7895 12.2927C46.7487 12.2927 47.5263 13.0789 47.5263 14.0488Z" fill="#E7EAE9"/>
<path d="M47.5263 9.95122C47.5263 10.9211 46.7487 11.7073 45.7895 11.7073C44.8302 11.7073 44.0526 10.9211 44.0526 9.95122C44.0526 8.98135 44.8302 8.19512 45.7895 8.19512C46.7487 8.19512 47.5263 8.98135 47.5263 9.95122Z" fill="#E7EAE9"/>
<path d="M47.5263 18.1463C47.5263 19.1162 46.7487 19.9024 45.7895 19.9024C44.8302 19.9024 44.0526 19.1162 44.0526 18.1463C44.0526 17.1765 44.8302 16.3902 45.7895 16.3902C46.7487 16.3902 47.5263 17.1765 47.5263 18.1463Z" fill="#E7EAE9"/>
<path d="M47.5263 22.2439C47.5263 23.2138 46.7487 24 45.7895 24C44.8302 24 44.0526 23.2138 44.0526 22.2439C44.0526 21.274 44.8302 20.4878 45.7895 20.4878C46.7487 20.4878 47.5263 21.274 47.5263 22.2439Z" fill="#E7EAE9"/>
<path d="M55.6316 18.1463C55.6316 19.1162 54.854 19.9024 53.8947 19.9024C52.9355 19.9024 52.1579 19.1162 52.1579 18.1463C52.1579 17.1765 52.9355 16.3902 53.8947 16.3902C54.854 16.3902 55.6316 17.1765 55.6316 18.1463Z" fill="#E7EAE9"/>
<path d="M55.6316 22.2439C55.6316 23.2138 54.854 24 53.8947 24C52.9355 24 52.1579 23.2138 52.1579 22.2439C52.1579 21.274 52.9355 20.4878 53.8947 20.4878C54.854 20.4878 55.6316 21.274 55.6316 22.2439Z" fill="#E7EAE9"/>
<path d="M51.5789 5.85366C51.5789 6.82352 50.8013 7.60976 49.8421 7.60976C48.8829 7.60976 48.1053 6.82352 48.1053 5.85366C48.1053 4.88379 48.8829 4.09756 49.8421 4.09756C50.8013 4.09756 51.5789 4.88379 51.5789 5.85366Z" fill="#E7EAE9"/>
<path d="M51.5789 9.95122C51.5789 10.9211 50.8013 11.7073 49.8421 11.7073C48.8829 11.7073 48.1053 10.9211 48.1053 9.95122C48.1053 8.98135 48.8829 8.19512 49.8421 8.19512C50.8013 8.19512 51.5789 8.98135 51.5789 9.95122Z" fill="#E7EAE9"/>
<path d="M59.6842 9.95122C59.6842 10.9211 58.9066 11.7073 57.9474 11.7073C56.9881 11.7073 56.2105 10.9211 56.2105 9.95122C56.2105 8.98135 56.9881 8.19512 57.9474 8.19512C58.9066 8.19512 59.6842 8.98135 59.6842 9.95122Z" fill="#E7EAE9"/>
<path d="M59.6842 14.0488C59.6842 15.0186 58.9066 15.8049 57.9474 15.8049C56.9881 15.8049 56.2105 15.0186 56.2105 14.0488C56.2105 13.0789 56.9881 12.2927 57.9474 12.2927C58.9066 12.2927 59.6842 13.0789 59.6842 14.0488Z" fill="#E7EAE9"/>
<path d="M59.6842 18.1463C59.6842 19.1162 58.9066 19.9024 57.9474 19.9024C56.9881 19.9024 56.2105 19.1162 56.2105 18.1463C56.2105 17.1765 56.9881 16.3902 57.9474 16.3902C58.9066 16.3902 59.6842 17.1765 59.6842 18.1463Z" fill="#E7EAE9"/>
<path d="M59.6842 22.2439C59.6842 23.2138 58.9066 24 57.9474 24C56.9881 24 56.2105 23.2138 56.2105 22.2439C56.2105 21.274 56.9881 20.4878 57.9474 20.4878C58.9066 20.4878 59.6842 21.274 59.6842 22.2439Z" fill="#E7EAE9"/>
<path d="M67.7895 9.95122C67.7895 10.9211 67.0119 11.7073 66.0526 11.7073C65.0934 11.7073 64.3158 10.9211 64.3158 9.95122C64.3158 8.98135 65.0934 8.19512 66.0526 8.19512C67.0119 8.19512 67.7895 8.98135 67.7895 9.95122Z" fill="#E7EAE9"/>
<path d="M67.7895 5.85366C67.7895 6.82352 67.0119 7.60976 66.0526 7.60976C65.0934 7.60976 64.3158 6.82352 64.3158 5.85366C64.3158 4.88379 65.0934 4.09756 66.0526 4.09756C67.0119 4.09756 67.7895 4.88379 67.7895 5.85366Z" fill="#E7EAE9"/>
<path d="M67.7895 1.7561C67.7895 2.72596 67.0119 3.5122 66.0526 3.5122C65.0934 3.5122 64.3158 2.72596 64.3158 1.7561C64.3158 0.786232 65.0934 0 66.0526 0C67.0119 0 67.7895 0.786232 67.7895 1.7561Z" fill="#E7EAE9"/>
<path d="M67.7895 14.0488C67.7895 15.0186 67.0119 15.8049 66.0526 15.8049C65.0934 15.8049 64.3158 15.0186 64.3158 14.0488C64.3158 13.0789 65.0934 12.2927 66.0526 12.2927C67.0119 12.2927 67.7895 13.0789 67.7895 14.0488Z" fill="#E7EAE9"/>
<path d="M67.7895 18.1463C67.7895 19.1162 67.0119 19.9024 66.0526 19.9024C65.0934 19.9024 64.3158 19.1162 64.3158 18.1463C64.3158 17.1765 65.0934 16.3902 66.0526 16.3902C67.0119 16.3902 67.7895 17.1765 67.7895 18.1463Z" fill="#E7EAE9"/>
<path d="M67.7895 22.2439C67.7895 23.2138 67.0119 24 66.0526 24C65.0934 24 64.3158 23.2138 64.3158 22.2439C64.3158 21.274 65.0934 20.4878 66.0526 20.4878C67.0119 20.4878 67.7895 21.274 67.7895 22.2439Z" fill="#E7EAE9"/>
<path d="M75.8947 9.95122C75.8947 10.9211 75.1171 11.7073 74.1579 11.7073C73.1987 11.7073 72.4211 10.9211 72.4211 9.95122C72.4211 8.98135 73.1987 8.19512 74.1579 8.19512C75.1171 8.19512 75.8947 8.98135 75.8947 9.95122Z" fill="#E7EAE9"/>
<path d="M75.8947 5.85366C75.8947 6.82352 75.1171 7.60976 74.1579 7.60976C73.1987 7.60976 72.4211 6.82352 72.4211 5.85366C72.4211 4.88379 73.1987 4.09756 74.1579 4.09756C75.1171 4.09756 75.8947 4.88379 75.8947 5.85366Z" fill="#E7EAE9"/>
<path d="M75.8947 1.7561C75.8947 2.72596 75.1171 3.5122 74.1579 3.5122C73.1987 3.5122 72.4211 2.72596 72.4211 1.7561C72.4211 0.786232 73.1987 0 74.1579 0C75.1171 0 75.8947 0.786232 75.8947 1.7561Z" fill="#E7EAE9"/>
<path d="M75.8947 14.0488C75.8947 15.0186 75.1171 15.8049 74.1579 15.8049C73.1987 15.8049 72.4211 15.0186 72.4211 14.0488C72.4211 13.0789 73.1987 12.2927 74.1579 12.2927C75.1171 12.2927 75.8947 13.0789 75.8947 14.0488Z" fill="#E7EAE9"/>
<path d="M75.8947 18.1463C75.8947 19.1162 75.1171 19.9024 74.1579 19.9024C73.1987 19.9024 72.4211 19.1162 72.4211 18.1463C72.4211 17.1765 73.1987 16.3902 74.1579 16.3902C75.1171 16.3902 75.8947 17.1765 75.8947 18.1463Z" fill="#E7EAE9"/>
<path d="M75.8947 22.2439C75.8947 23.2138 75.1171 24 74.1579 24C73.1987 24 72.4211 23.2138 72.4211 22.2439C72.4211 21.274 73.1987 20.4878 74.1579 20.4878C75.1171 20.4878 75.8947 21.274 75.8947 22.2439Z" fill="#E7EAE9"/>
<path d="M51.5789 14.0488C51.5789 15.0186 50.8013 15.8049 49.8421 15.8049C48.8829 15.8049 48.1053 15.0186 48.1053 14.0488C48.1053 13.0789 48.8829 12.2927 49.8421 12.2927C50.8013 12.2927 51.5789 13.0789 51.5789 14.0488Z" fill="#E7EAE9"/>
<path d="M43.4737 14.0488C43.4737 15.0186 42.6961 15.8049 41.7368 15.8049C40.7776 15.8049 40 15.0186 40 14.0488C40 13.0789 40.7776 12.2927 41.7368 12.2927C42.6961 12.2927 43.4737 13.0789 43.4737 14.0488Z" fill="#E7EAE9"/>
<path d="M43.4737 18.1463C43.4737 19.1162 42.6961 19.9024 41.7368 19.9024C40.7776 19.9024 40 19.1162 40 18.1463C40 17.1765 40.7776 16.3902 41.7368 16.3902C42.6961 16.3902 43.4737 17.1765 43.4737 18.1463Z" fill="#E7EAE9"/>
<path d="M51.5789 18.1463C51.5789 19.1162 50.8013 19.9024 49.8421 19.9024C48.8829 19.9024 48.1053 19.1162 48.1053 18.1463C48.1053 17.1765 48.8829 16.3902 49.8421 16.3902C50.8013 16.3902 51.5789 17.1765 51.5789 18.1463Z" fill="#E7EAE9"/>
<path d="M51.5789 22.2439C51.5789 23.2138 50.8013 24 49.8421 24C48.8829 24 48.1053 23.2138 48.1053 22.2439C48.1053 21.274 48.8829 20.4878 49.8421 20.4878C50.8013 20.4878 51.5789 21.274 51.5789 22.2439Z" fill="#E7EAE9"/>
</svg>
