<svg width="98" height="63" viewBox="0 0 98 63" fill="none" xmlns="http://www.w3.org/2000/svg">
<path d="M49 39C49 40.6569 47.6569 42 46 42C44.3431 42 43 40.6569 43 39C43 37.3431 44.3431 36 46 36C47.6569 36 49 37.3431 49 39Z" fill="#E7EAE9"/>
<path d="M63 39C63 40.6569 61.6569 42 60 42C58.3431 42 57 40.6569 57 39C57 37.3431 58.3431 36 60 36C61.6569 36 63 37.3431 63 39Z" fill="#E7EAE9"/>
<path d="M63 32C63 33.6569 61.6569 35 60 35C58.3431 35 57 33.6569 57 32C57 30.3431 58.3431 29 60 29C61.6569 29 63 30.3431 63 32Z" fill="#E7EAE9"/>
<path d="M63 46C63 47.6569 61.6569 49 60 49C58.3431 49 57 47.6569 57 46C57 44.3431 58.3431 43 60 43C61.6569 43 63 44.3431 63 46Z" fill="#E7EAE9"/>
<path d="M63 53C63 54.6569 61.6569 56 60 56C58.3431 56 57 54.6569 57 53C57 51.3431 58.3431 50 60 50C61.6569 50 63 51.3431 63 53Z" fill="#E7EAE9"/>
<path d="M63 60C63 61.6569 61.6569 63 60 63C58.3431 63 57 61.6569 57 60C57 58.3431 58.3431 57 60 57C61.6569 57 63 58.3431 63 60Z" fill="#E7EAE9"/>
<path d="M77 39C77 40.6569 75.6569 42 74 42C72.3431 42 71 40.6569 71 39C71 37.3431 72.3431 36 74 36C75.6569 36 77 37.3431 77 39Z" fill="#E7EAE9"/>
<path d="M77 32C77 33.6569 75.6569 35 74 35C72.3431 35 71 33.6569 71 32C71 30.3431 72.3431 29 74 29C75.6569 29 77 30.3431 77 32Z" fill="#E7EAE9"/>
<path d="M77 25C77 26.6569 75.6569 28 74 28C72.3431 28 71 26.6569 71 25C71 23.3431 72.3431 22 74 22C75.6569 22 77 23.3431 77 25Z" fill="#E7EAE9"/>
<path d="M77 46C77 47.6569 75.6569 49 74 49C72.3431 49 71 47.6569 71 46C71 44.3431 72.3431 43 74 43C75.6569 43 77 44.3431 77 46Z" fill="#E7EAE9"/>
<path d="M77 53C77 54.6569 75.6569 56 74 56C72.3431 56 71 54.6569 71 53C71 51.3431 72.3431 50 74 50C75.6569 50 77 51.3431 77 53Z" fill="#E7EAE9"/>
<path d="M77 60C77 61.6569 75.6569 63 74 63C72.3431 63 71 61.6569 71 60C71 58.3431 72.3431 57 74 57C75.6569 57 77 58.3431 77 60Z" fill="#E7EAE9"/>
<path d="M91 39C91 40.6569 89.6569 42 88 42C86.3431 42 85 40.6569 85 39C85 37.3431 86.3431 36 88 36C89.6569 36 91 37.3431 91 39Z" fill="#E7EAE9"/>
<path d="M98 39C98 40.6569 96.6569 42 95 42C93.3431 42 92 40.6569 92 39C92 37.3431 93.3431 36 95 36C96.6569 36 98 37.3431 98 39Z" fill="#E7EAE9"/>
<path d="M91 32C91 33.6569 89.6569 35 88 35C86.3431 35 85 33.6569 85 32C85 30.3431 86.3431 29 88 29C89.6569 29 91 30.3431 91 32Z" fill="#E7EAE9"/>
<path d="M91 46C91 47.6569 89.6569 49 88 49C86.3431 49 85 47.6569 85 46C85 44.3431 86.3431 43 88 43C89.6569 43 91 44.3431 91 46Z" fill="#E7EAE9"/>
<path d="M98 46C98 47.6569 96.6569 49 95 49C93.3431 49 92 47.6569 92 46C92 44.3431 93.3431 43 95 43C96.6569 43 98 44.3431 98 46Z" fill="#E7EAE9"/>
<path d="M91 53C91 54.6569 89.6569 56 88 56C86.3431 56 85 54.6569 85 53C85 51.3431 86.3431 50 88 50C89.6569 50 91 51.3431 91 53Z" fill="#E7EAE9"/>
<path d="M98 53C98 54.6569 96.6569 56 95 56C93.3431 56 92 54.6569 92 53C92 51.3431 93.3431 50 95 50C96.6569 50 98 51.3431 98 53Z" fill="#E7EAE9"/>
<path d="M91 60C91 61.6569 89.6569 63 88 63C86.3431 63 85 61.6569 85 60C85 58.3431 86.3431 57 88 57C89.6569 57 91 58.3431 91 60Z" fill="#E7EAE9"/>
<path d="M49 46C49 47.6569 47.6569 49 46 49C44.3431 49 43 47.6569 43 46C43 44.3431 44.3431 43 46 43C47.6569 43 49 44.3431 49 46Z" fill="#E7EAE9"/>
<path d="M35 46C35 47.6569 33.6569 49 32 49C30.3431 49 29 47.6569 29 46C29 44.3431 30.3431 43 32 43C33.6569 43 35 44.3431 35 46Z" fill="#E7EAE9"/>
<path d="M35 53C35 54.6569 33.6569 56 32 56C30.3431 56 29 54.6569 29 53C29 51.3431 30.3431 50 32 50C33.6569 50 35 51.3431 35 53Z" fill="#E7EAE9"/>
<path d="M35 60C35 61.6569 33.6569 63 32 63C30.3431 63 29 61.6569 29 60C29 58.3431 30.3431 57 32 57C33.6569 57 35 58.3431 35 60Z" fill="#E7EAE9"/>
<path d="M49 53C49 54.6569 47.6569 56 46 56C44.3431 56 43 54.6569 43 53C43 51.3431 44.3431 50 46 50C47.6569 50 49 51.3431 49 53Z" fill="#E7EAE9"/>
<path d="M49 60C49 61.6569 47.6569 63 46 63C44.3431 63 43 61.6569 43 60C43 58.3431 44.3431 57 46 57C47.6569 57 49 58.3431 49 60Z" fill="#E7EAE9"/>
<path d="M42 39C42 40.6569 40.6569 42 39 42C37.3431 42 36 40.6569 36 39C36 37.3431 37.3431 36 39 36C40.6569 36 42 37.3431 42 39Z" fill="#E7EAE9"/>
<path d="M56 39C56 40.6569 54.6569 42 53 42C51.3431 42 50 40.6569 50 39C50 37.3431 51.3431 36 53 36C54.6569 36 56 37.3431 56 39Z" fill="#E7EAE9"/>
<path d="M56 46C56 47.6569 54.6569 49 53 49C51.3431 49 50 47.6569 50 46C50 44.3431 51.3431 43 53 43C54.6569 43 56 44.3431 56 46Z" fill="#E7EAE9"/>
<path d="M56 53C56 54.6569 54.6569 56 53 56C51.3431 56 50 54.6569 50 53C50 51.3431 51.3431 50 53 50C54.6569 50 56 51.3431 56 53Z" fill="#E7EAE9"/>
<path d="M56 60C56 61.6569 54.6569 63 53 63C51.3431 63 50 61.6569 50 60C50 58.3431 51.3431 57 53 57C54.6569 57 56 58.3431 56 60Z" fill="#E7EAE9"/>
<path d="M70 39C70 40.6569 68.6569 42 67 42C65.3431 42 64 40.6569 64 39C64 37.3431 65.3431 36 67 36C68.6569 36 70 37.3431 70 39Z" fill="#E7EAE9"/>
<path d="M70 32C70 33.6569 68.6569 35 67 35C65.3431 35 64 33.6569 64 32C64 30.3431 65.3431 29 67 29C68.6569 29 70 30.3431 70 32Z" fill="#E7EAE9"/>
<path d="M70 25C70 26.6569 68.6569 28 67 28C65.3431 28 64 26.6569 64 25C64 23.3431 65.3431 22 67 22C68.6569 22 70 23.3431 70 25Z" fill="#E7EAE9"/>
<path d="M70 46C70 47.6569 68.6569 49 67 49C65.3431 49 64 47.6569 64 46C64 44.3431 65.3431 43 67 43C68.6569 43 70 44.3431 70 46Z" fill="#E7EAE9"/>
<path d="M70 53C70 54.6569 68.6569 56 67 56C65.3431 56 64 54.6569 64 53C64 51.3431 65.3431 50 67 50C68.6569 50 70 51.3431 70 53Z" fill="#E7EAE9"/>
<path d="M70 60C70 61.6569 68.6569 63 67 63C65.3431 63 64 61.6569 64 60C64 58.3431 65.3431 57 67 57C68.6569 57 70 58.3431 70 60Z" fill="#E7EAE9"/>
<path d="M84 39C84 40.6569 82.6569 42 81 42C79.3431 42 78 40.6569 78 39C78 37.3431 79.3431 36 81 36C82.6569 36 84 37.3431 84 39Z" fill="#E7EAE9"/>
<path d="M84 32C84 33.6569 82.6569 35 81 35C79.3431 35 78 33.6569 78 32C78 30.3431 79.3431 29 81 29C82.6569 29 84 30.3431 84 32Z" fill="#E7EAE9"/>
<path d="M84 25C84 26.6569 82.6569 28 81 28C79.3431 28 78 26.6569 78 25C78 23.3431 79.3431 22 81 22C82.6569 22 84 23.3431 84 25Z" fill="#E7EAE9"/>
<path d="M84 46C84 47.6569 82.6569 49 81 49C79.3431 49 78 47.6569 78 46C78 44.3431 79.3431 43 81 43C82.6569 43 84 44.3431 84 46Z" fill="#E7EAE9"/>
<path d="M84 53C84 54.6569 82.6569 56 81 56C79.3431 56 78 54.6569 78 53C78 51.3431 79.3431 50 81 50C82.6569 50 84 51.3431 84 53Z" fill="#E7EAE9"/>
<path d="M84 60C84 61.6569 82.6569 63 81 63C79.3431 63 78 61.6569 78 60C78 58.3431 79.3431 57 81 57C82.6569 57 84 58.3431 84 60Z" fill="#E7EAE9"/>
<path d="M42 46C42 47.6569 40.6569 49 39 49C37.3431 49 36 47.6569 36 46C36 44.3431 37.3431 43 39 43C40.6569 43 42 44.3431 42 46Z" fill="#E7EAE9"/>
<path d="M28 53C28 54.6569 26.6569 56 25 56C23.3431 56 22 54.6569 22 53C22 51.3431 23.3431 50 25 50C26.6569 50 28 51.3431 28 53Z" fill="#E7EAE9"/>
<path d="M42 53C42 54.6569 40.6569 56 39 56C37.3431 56 36 54.6569 36 53C36 51.3431 37.3431 50 39 50C40.6569 50 42 51.3431 42 53Z" fill="#E7EAE9"/>
<path d="M42 60C42 61.6569 40.6569 63 39 63C37.3431 63 36 61.6569 36 60C36 58.3431 37.3431 57 39 57C40.6569 57 42 58.3431 42 60Z" fill="#E7EAE9"/>
<path d="M35 3C35 4.65685 33.6569 6 32 6C30.3431 6 29 4.65685 29 3C29 1.34315 30.3431 0 32 0C33.6569 0 35 1.34315 35 3Z" fill="#E7EAE9"/>
<path d="M56 11C56 12.6569 54.6569 14 53 14C51.3431 14 50 12.6569 50 11C50 9.34315 51.3431 8 53 8C54.6569 8 56 9.34315 56 11Z" fill="#E7EAE9"/>
<path d="M6 32C6 33.6569 4.65685 35 3 35C1.34315 35 0 33.6569 0 32C0 30.3431 1.34315 29 3 29C4.65685 29 6 30.3431 6 32Z" fill="#E7EAE9"/>
<path d="M13 11C13 12.6569 11.6569 14 10 14C8.34315 14 7 12.6569 7 11C7 9.34315 8.34315 8 10 8C11.6569 8 13 9.34315 13 11Z" fill="#E7EAE9"/>
<path d="M28 18C28 19.6569 26.6569 21 25 21C23.3431 21 22 19.6569 22 18C22 16.3431 23.3431 15 25 15C26.6569 15 28 16.3431 28 18Z" fill="#E7EAE9"/>
<path d="M28 25C28 26.6569 26.6569 28 25 28C23.3431 28 22 26.6569 22 25C22 23.3431 23.3431 22 25 22C26.6569 22 28 23.3431 28 25Z" fill="#E7EAE9"/>
<path d="M21 25C21 26.6569 19.6569 28 18 28C16.3431 28 15 26.6569 15 25C15 23.3431 16.3431 22 18 22C19.6569 22 21 23.3431 21 25Z" fill="#E7EAE9"/>
<path d="M49 25C49 26.6569 47.6569 28 46 28C44.3431 28 43 26.6569 43 25C43 23.3431 44.3431 22 46 22C47.6569 22 49 23.3431 49 25Z" fill="#E7EAE9"/>
<path d="M21 32C21 33.6569 19.6569 35 18 35C16.3431 35 15 33.6569 15 32C15 30.3431 16.3431 29 18 29C19.6569 29 21 30.3431 21 32Z" fill="#E7EAE9"/>
<path d="M21 39C21 40.6569 19.6569 42 18 42C16.3431 42 15 40.6569 15 39C15 37.3431 16.3431 36 18 36C19.6569 36 21 37.3431 21 39Z" fill="#E7EAE9"/>
<path d="M28 32C28 33.6569 26.6569 35 25 35C23.3431 35 22 33.6569 22 32C22 30.3431 23.3431 29 25 29C26.6569 29 28 30.3431 28 32Z" fill="#E7EAE9"/>
<path d="M35 18C35 19.6569 33.6569 21 32 21C30.3431 21 29 19.6569 29 18C29 16.3431 30.3431 15 32 15C33.6569 15 35 16.3431 35 18Z" fill="#E7EAE9"/>
<path d="M35 25C35 26.6569 33.6569 28 32 28C30.3431 28 29 26.6569 29 25C29 23.3431 30.3431 22 32 22C33.6569 22 35 23.3431 35 25Z" fill="#E7EAE9"/>
<path d="M42 18C42 19.6569 40.6569 21 39 21C37.3431 21 36 19.6569 36 18C36 16.3431 37.3431 15 39 15C40.6569 15 42 16.3431 42 18Z" fill="#E7EAE9"/>
<path d="M42 25C42 26.6569 40.6569 28 39 28C37.3431 28 36 26.6569 36 25C36 23.3431 37.3431 22 39 22C40.6569 22 42 23.3431 42 25Z" fill="#E7EAE9"/>
</svg>
